<?xml version="1.0" standalone="no"?>
<!DOCTYPE svg PUBLIC "-//W3C//DTD SVG 20010904//EN"
 "http://www.w3.org/TR/2001/REC-SVG-20010904/DTD/svg10.dtd">
<svg version="1.0" xmlns="http://www.w3.org/2000/svg"
 width="2156.000000pt" height="2048.000000pt" viewBox="0 0 2156.000000 2048.000000"
 preserveAspectRatio="xMidYMid meet">

<g transform="translate(0.000000,2048.000000) scale(0.100000,-0.100000)"
fill="#000000" stroke="none">
<path d="M18346 19525 c-63 -18 -157 -66 -221 -114 -89 -67 -164 -141 -338
-336 -316 -352 -465 -480 -680 -585 -147 -72 -268 -105 -434 -121 -299 -28
-634 47 -1033 233 -52 25 -222 113 -378 196 -377 203 -519 262 -625 262 -140
0 -238 -104 -290 -308 -20 -79 -22 -111 -21 -342 0 -282 10 -380 70 -680 56
-281 94 -413 289 -995 228 -680 278 -859 321 -1137 20 -124 22 -378 5 -466
-57 -295 -230 -488 -525 -587 -102 -34 -175 -49 -511 -101 -881 -137 -1333
-230 -1820 -378 -832 -253 -1552 -622 -2163 -1109 -657 -524 -1209 -1192
-1665 -2018 -363 -657 -660 -1432 -923 -2409 -31 -113 -116 -441 -189 -730
-198 -777 -277 -1032 -405 -1295 -68 -142 -131 -232 -289 -415 -368 -427 -804
-816 -1241 -1107 -432 -287 -770 -455 -1550 -773 -393 -160 -470 -194 -639
-280 -583 -297 -829 -658 -882 -1295 -21 -255 -1 -419 70 -594 136 -329 489
-667 931 -890 299 -151 539 -218 751 -209 114 5 169 24 208 74 55 70 18 129
-263 414 -261 264 -310 320 -389 438 -296 442 -133 838 503 1222 112 68 343
186 490 250 159 70 1590 642 1820 728 979 364 1267 351 1755 -80 l76 -68 3046
0 3046 0 -7 190 c-14 371 -53 508 -178 627 -158 149 -425 205 -1050 221 l-266
7 57 145 c334 842 983 1836 1369 2099 115 78 163 95 284 99 133 5 309 -12 414
-39 170 -44 321 -154 403 -293 91 -153 151 -406 151 -636 0 -348 97 -677 310
-1045 352 -611 935 -1199 1425 -1436 172 -83 274 -111 405 -112 125 -1 192 20
264 84 80 71 176 245 217 395 17 62 20 96 17 168 -10 183 -68 275 -373 586
-121 124 -253 262 -293 308 -389 444 -609 963 -692 1631 -57 463 -43 1154 36
1699 111 780 345 1375 750 1912 131 173 233 289 514 585 125 132 267 285 315
340 302 344 465 653 539 1025 39 194 50 352 43 629 -9 391 -43 612 -162 1046
-36 132 -77 300 -90 373 -46 248 -51 553 -11 738 50 235 142 391 384 659 217
239 287 352 318 515 24 126 14 217 -70 640 -117 587 -169 926 -220 1425 -15
138 -33 306 -42 374 -46 357 -139 542 -311 624 -63 30 -76 32 -188 34 -79 1
-137 -3 -169 -12z"/>
</g>
</svg>
